<?xml version="1.0" encoding="UTF-8"?>
<!DOCTYPE svg PUBLIC "-//W3C//DTD SVG 1.1//EN" "http://www.w3.org/Graphics/SVG/1.1/DTD/svg11.dtd">
<svg xmlns="http://www.w3.org/2000/svg" version="1.1" width="818px" height="816px" style="shape-rendering:geometricPrecision; text-rendering:geometricPrecision; image-rendering:optimizeQuality; fill-rule:evenodd; clip-rule:evenodd" xmlns:xlink="http://www.w3.org/1999/xlink">
<g><path style="opacity:1" fill="#fefefe" d="M -0.5,-0.5 C 272.167,-0.5 544.833,-0.5 817.5,-0.5C 817.5,271.5 817.5,543.5 817.5,815.5C 544.833,815.5 272.167,815.5 -0.5,815.5C -0.5,543.5 -0.5,271.5 -0.5,-0.5 Z"/></g>
<g><path style="opacity:1" fill="#243641" d="M 389.5,193.5 C 454.568,188.117 491.402,217.784 500,282.5C 500.333,290.167 500.667,297.833 501,305.5C 504.468,307.847 506.468,311.181 507,315.5C 509.745,334.788 505.745,352.454 495,368.5C 493.292,370.543 491.292,372.21 489,373.5C 482.066,393.217 471.233,410.384 456.5,425C 442.004,437.002 425.337,443.835 406.5,445.5C 376.548,441.039 354.048,425.706 339,399.5C 334.453,391.073 330.453,382.406 327,373.5C 318.926,367.041 313.592,358.708 311,348.5C 308.588,337.624 307.922,326.624 309,315.5C 309.624,311.425 311.457,308.092 314.5,305.5C 314.3,279.653 320.134,255.319 332,232.5C 345.695,211.405 364.861,198.405 389.5,193.5 Z"/></g>
<g><path style="opacity:1" fill="#233541" d="M 571.5,499.5 C 570.833,500.167 570.167,500.833 569.5,501.5C 541.135,507.356 521.302,523.689 510,550.5C 507.57,556.285 506.07,562.285 505.5,568.5C 504.518,571.962 504.185,575.629 504.5,579.5C 412.5,579.5 320.5,579.5 228.5,579.5C 226.887,579.056 225.72,578.056 225,576.5C 224.333,559.833 224.333,543.167 225,526.5C 228.032,511.798 236.532,501.632 250.5,496C 270.919,485.124 291.586,474.791 312.5,465C 320.851,459.825 328.851,454.158 336.5,448C 339.167,447.333 341.833,447.333 344.5,448C 386.857,481.872 429.19,481.872 471.5,448C 474.167,447.333 476.833,447.333 479.5,448C 486.479,453.823 493.812,459.156 501.5,464C 524.985,475.575 548.318,487.409 571.5,499.5 Z"/></g>
<g><path style="opacity:1" fill="#8f9195" d="M 571.5,499.5 C 572.043,499.56 572.376,499.893 572.5,500.5C 571.675,501.386 570.675,501.719 569.5,501.5C 570.167,500.833 570.833,500.167 571.5,499.5 Z"/></g>
<g><path style="opacity:1" fill="#243541" d="M 574.5,513.5 C 613.754,511.529 639.254,529.195 651,566.5C 655.148,597.358 644.314,621.192 618.5,638C 584.408,654.347 555.241,648.181 531,619.5C 516.058,595.945 514.725,571.611 527,546.5C 538.331,528.926 554.164,517.926 574.5,513.5 Z"/></g>
<g><path style="opacity:1" fill="#fbfcfc" d="M 595.5,548.5 C 595.5,555.5 595.5,562.5 595.5,569.5C 602.167,569.5 608.833,569.5 615.5,569.5C 623.657,572.149 626.157,577.482 623,585.5C 621.143,588.2 618.643,589.866 615.5,590.5C 608.833,590.5 602.167,590.5 595.5,590.5C 595.5,597.167 595.5,603.833 595.5,610.5C 592.769,618.469 587.436,620.969 579.5,618C 576.404,615.971 574.738,613.138 574.5,609.5C 574.5,603.167 574.5,596.833 574.5,590.5C 567.833,590.5 561.167,590.5 554.5,590.5C 546.169,587.173 544.002,581.507 548,573.5C 549.638,571.266 551.805,569.933 554.5,569.5C 561.167,569.5 567.833,569.5 574.5,569.5C 574.5,562.833 574.5,556.167 574.5,549.5C 575.789,544.205 579.122,541.539 584.5,541.5C 590.005,541.079 593.671,543.412 595.5,548.5 Z"/></g>
<g><path style="opacity:1" fill="#727d85" d="M 574.5,549.5 C 574.5,556.167 574.5,562.833 574.5,569.5C 567.833,569.5 561.167,569.5 554.5,569.5C 560.645,568.51 566.978,568.177 573.5,568.5C 573.177,561.978 573.51,555.645 574.5,549.5 Z"/></g>
<g><path style="opacity:1" fill="#7d8992" d="M 595.5,548.5 C 596.491,554.979 596.824,561.646 596.5,568.5C 603.022,568.177 609.355,568.51 615.5,569.5C 608.833,569.5 602.167,569.5 595.5,569.5C 595.5,562.5 595.5,555.5 595.5,548.5 Z"/></g>
<g><path style="opacity:1" fill="#82939c" d="M 505.5,568.5 C 505.5,572.5 505.5,576.5 505.5,580.5C 412.998,580.833 320.665,580.499 228.5,579.5C 320.5,579.5 412.5,579.5 504.5,579.5C 504.185,575.629 504.518,571.962 505.5,568.5 Z"/></g>
<g><path style="opacity:1" fill="#8d969a" d="M 615.5,590.5 C 609.355,591.49 603.022,591.823 596.5,591.5C 596.823,598.022 596.49,604.355 595.5,610.5C 595.5,603.833 595.5,597.167 595.5,590.5C 602.167,590.5 608.833,590.5 615.5,590.5 Z"/></g>
<g><path style="opacity:1" fill="#768188" d="M 554.5,590.5 C 561.167,590.5 567.833,590.5 574.5,590.5C 574.5,596.833 574.5,603.167 574.5,609.5C 573.51,603.69 573.177,597.69 573.5,591.5C 566.978,591.823 560.645,591.49 554.5,590.5 Z"/></g>
</svg>
