<?xml version="1.0" standalone="no"?>
<!DOCTYPE svg PUBLIC "-//W3C//DTD SVG 20010904//EN"
 "http://www.w3.org/TR/2001/REC-SVG-20010904/DTD/svg10.dtd">
<svg version="1.0" xmlns="http://www.w3.org/2000/svg"
 width="1580.000000pt" height="760.000000pt" viewBox="0 0 1580.000000 760.000000"
 preserveAspectRatio="xMidYMid meet">

<g transform="translate(0.000000,760.000000) scale(0.100000,-0.100000)"
fill="#000000" stroke="none">
<path d="M3468 5205 c-259 -65 -429 -317 -389 -576 49 -315 378 -515 676 -410
338 119 455 533 229 814 -49 60 -151 130 -229 158 -77 27 -209 34 -287 14z"/>
<path d="M12780 3605 l0 -995 195 0 195 0 0 995 0 995 -195 0 -195 0 0 -995z"/>
<path d="M8370 3580 l0 -970 195 0 194 0 3 428 c3 425 3 427 27 480 45 99 116
137 246 130 86 -4 128 -30 159 -97 20 -44 21 -62 24 -493 l3 -448 200 0 201 0
-5 463 c-5 501 -10 555 -63 660 -73 143 -220 216 -439 216 -166 1 -293 -52
-343 -144 -9 -15 -11 78 -12 363 l0 382 -195 0 -195 0 0 -970z"/>
<path d="M2845 4088 c-68 -34 -106 -79 -152 -176 -25 -51 -43 -96 -40 -98 3
-3 35 -9 71 -15 272 -38 494 -129 671 -274 46 -37 54 -40 95 -35 25 3 69 2 98
-1 51 -5 56 -3 95 31 67 57 137 105 206 140 92 46 281 106 391 125 52 9 105
18 117 21 21 4 21 4 4 61 -36 119 -86 184 -171 222 -44 20 -62 21 -695 20
-637 0 -651 0 -690 -21z"/>
<path d="M6162 3930 c-148 -40 -264 -126 -319 -237 -25 -52 -28 -68 -28 -158
0 -121 19 -171 94 -244 77 -75 268 -159 436 -191 87 -17 125 -43 125 -85 0
-42 -36 -70 -108 -85 -85 -19 -187 21 -284 109 l-54 50 -128 -128 -127 -127
45 -42 c147 -136 353 -212 532 -198 93 8 205 36 267 67 63 33 146 117 179 184
40 78 50 195 23 276 -40 118 -160 197 -415 270 -218 62 -257 90 -222 160 49
97 205 76 341 -47 l53 -47 124 124 c68 68 124 127 124 130 0 15 -157 129 -223
162 -144 71 -305 93 -435 57z"/>
<path d="M7506 3935 c-48 -9 -117 -33 -175 -60 -82 -39 -107 -57 -180 -133
-143 -145 -196 -274 -195 -477 1 -102 5 -132 27 -200 60 -183 173 -313 342
-396 273 -133 609 -86 820 114 l55 52 -138 122 c-117 105 -138 120 -147 106
-31 -52 -91 -104 -141 -123 -158 -59 -316 4 -390 156 -37 76 -46 212 -19 295
47 147 151 229 290 229 104 0 192 -48 255 -138 15 -22 17 -20 152 100 l138
123 -55 52 c-157 149 -414 220 -639 178z"/>
<path d="M10326 3935 c-48 -10 -117 -33 -175 -60 -82 -39 -107 -57 -180 -133
-143 -145 -196 -274 -195 -477 1 -102 5 -132 27 -200 60 -183 173 -314 342
-395 73 -36 124 -53 189 -65 111 -19 151 -19 260 0 259 45 462 219 536 460 30
96 37 247 16 345 -31 147 -135 312 -254 400 -153 113 -371 162 -566 125z m268
-345 c118 -60 191 -228 166 -383 -27 -173 -129 -276 -282 -285 -117 -7 -216
56 -274 174 -23 48 -29 74 -32 150 -8 170 53 285 183 350 67 33 166 30 239 -6z"/>
<path d="M11807 3934 c-249 -45 -444 -216 -524 -459 -23 -69 -26 -97 -26 -205
0 -107 3 -136 25 -202 84 -254 273 -417 534 -463 108 -19 150 -19 255 0 226
39 398 165 495 360 206 415 -36 890 -495 970 -101 18 -161 18 -264 -1z m259
-343 c126 -59 192 -207 173 -384 -24 -220 -227 -347 -415 -258 -108 51 -165
149 -172 297 -4 75 0 104 17 155 32 96 80 155 154 190 85 40 159 40 243 0z"/>
<path d="M2370 3669 l0 -75 193 0 c156 0 214 -4 307 -22 128 -24 262 -66 378
-117 70 -31 78 -32 94 -18 16 14 14 18 -30 55 -26 22 -101 66 -167 98 -182 89
-385 136 -632 147 l-143 6 0 -74z"/>
<path d="M4440 3729 c-284 -32 -559 -134 -692 -257 -25 -23 -26 -26 -11 -37
13 -10 30 -6 88 21 224 103 495 153 758 140 l127 -7 0 76 0 75 -97 -1 c-54 -1
-132 -5 -173 -10z"/>
<path d="M2485 3514 c-16 -2 -74 -9 -127 -15 l-98 -11 0 -249 0 -249 129 0
129 0 45 -44 c64 -62 80 -97 85 -194 4 -79 3 -86 -32 -156 -20 -42 -53 -89
-76 -110 l-40 -36 -120 0 -120 0 0 -131 0 -131 28 6 c138 28 348 35 489 15
142 -20 340 -78 526 -154 16 -7 17 27 17 638 l0 645 -92 40 c-197 85 -396 132
-588 137 -69 2 -138 2 -155 -1z"/>
<path d="M4345 3514 c-240 -35 -347 -65 -497 -136 l-88 -41 0 -648 0 -648 63
24 c34 12 94 35 132 50 39 14 131 42 205 62 109 28 160 36 265 40 119 5 328
-8 383 -23 l22 -6 0 130 0 130 -131 4 -131 3 -35 40 c-129 151 -136 323 -17
442 l53 53 130 0 131 0 0 248 0 248 -87 13 c-92 13 -346 23 -398 15z"/>
<path d="M3495 3414 c-11 -3 -35 -10 -54 -16 l-34 -11 34 -15 c44 -19 143 -20
194 -2 l40 13 -31 13 c-36 15 -120 25 -149 18z"/>
<path d="M3400 2657 l0 -644 48 -14 c55 -16 129 -16 190 0 l42 12 0 645 c0
355 -4 643 -8 640 -5 -3 -37 -10 -71 -15 -58 -9 -124 -4 -183 15 -17 5 -18
-30 -18 -639z"/>
<path d="M4910 2975 c0 -23 -5 -46 -12 -53 -8 -8 -58 -12 -158 -12 l-146 0
-27 -27 c-76 -81 -75 -198 4 -308 l32 -45 131 0 131 0 47 35 c73 54 101 105
106 193 4 66 1 79 -27 135 -17 34 -42 76 -56 92 l-25 30 0 -40z"/>
<path d="M2138 2969 c-96 -127 -102 -256 -16 -353 69 -79 88 -86 231 -86 l125
0 31 39 c45 57 61 102 61 174 0 54 -4 70 -31 110 -17 26 -41 49 -52 52 -12 3
-85 6 -162 8 l-140 2 -11 44 -10 44 -26 -34z"/>
</g>
</svg>
